<svg width="1700" height="1700" viewBox="0 0 1700 1700" fill="none" xmlns="http://www.w3.org/2000/svg">
<path d="M1700 850C1700 1319.44 1319.44 1700 850 1700C380.558 1700 0 1319.44 0 850C0 380.558 380.558 0 850 0C1319.44 0 1700 380.558 1700 850Z" fill="#2A9134"/>
<path d="M565.215 659.02L563.895 629.98C563.895 606.22 604.815 594.34 686.655 594.34C737.695 594.34 763.215 607.1 763.215 632.62C763.215 637.02 762.335 640.1 760.575 641.86C754.415 676.18 719.655 785.74 656.295 970.54C592.935 1155.34 561.255 1257.42 561.255 1276.78C561.255 1295.26 570.055 1304.5 587.655 1304.5C600.855 1304.5 610.975 1300.98 618.015 1293.94C630.335 1281.62 645.735 1266.22 664.215 1247.74C682.695 1229.26 733.295 1162.82 816.015 1048.42C898.735 933.14 965.175 833.7 1015.34 750.1C1032.06 716.66 1087.5 699.94 1181.66 699.94C1205.42 699.94 1217.3 707.42 1217.3 722.38L1208.06 747.46C1181.66 801.14 1146.02 895.74 1101.14 1031.26C1056.26 1166.78 1033.82 1246.42 1033.82 1270.18C1033.82 1293.06 1042.62 1304.5 1060.22 1304.5C1073.42 1304.5 1083.54 1300.98 1090.58 1293.94C1102.9 1281.62 1115.22 1269.3 1127.54 1256.98C1160.1 1224.42 1231.38 1131.58 1341.38 978.46C1452.26 824.46 1527.06 709.62 1565.78 633.94C1575.46 614.58 1586.46 601.82 1598.78 595.66C1620.78 585.1 1620 585.5 1656.89 582L1662.52 599.62C1673.5 635.5 1675.85 648 1675.85 648C1678.5 654.5 1690.5 715.5 1690.5 722.5C1604.26 804.34 1585.14 841.62 1417.94 1037.86C1251.62 1233.22 1138.54 1374.46 1078.7 1461.58C1066.38 1480.06 1056.7 1493.26 1049.66 1501.18C1042.62 1509.1 1031.18 1518.34 1015.34 1528.9C985.415 1548.26 933.055 1557.94 858.255 1557.94C815.135 1557.94 793.575 1547.38 793.575 1526.26L797.535 1511.74C802.815 1495.02 812.495 1466.86 826.575 1427.26C840.655 1387.66 852.535 1354.22 862.215 1326.94C871.895 1299.66 882.455 1269.74 893.895 1237.18C915.895 1171.18 926.895 1130.7 926.895 1115.74C926.895 1100.78 920.295 1093.3 907.095 1093.3C893.015 1093.3 877.175 1103.86 859.575 1124.98C790.055 1207.7 705.575 1319.9 606.135 1461.58C589.415 1485.34 576.215 1502.5 566.535 1513.06C556.855 1522.74 536.615 1532.42 505.815 1542.1C475.015 1552.66 436.295 1557.94 389.655 1557.94C343.895 1557.94 321.015 1547.38 321.015 1526.26L324.975 1511.74C355.775 1422.86 396.695 1294.82 447.735 1127.62C499.655 960.42 534.855 837.66 553.335 759.34C561.255 714.46 565.215 681.02 565.215 659.02Z" fill="white"/>
<path fill-rule="evenodd" clip-rule="evenodd" d="M949.657 297.644C1021.68 294.138 1072.02 354.986 1057.35 425.278L1056.27 430.391C1053.81 441.691 1044.63 452.019 1030.79 452.697C958.77 456.203 908.427 395.34 923.097 325.063L924.184 319.936C926.654 308.65 935.84 298.322 949.657 297.644ZM746.139 360.01C739.833 361.991 734.051 365.366 729.222 369.888C724.393 374.41 720.639 379.961 718.239 386.133C715.838 392.304 714.852 398.938 715.354 405.543C715.855 412.147 717.832 418.555 721.136 424.291L725.105 431.171C753.179 479.909 813.797 503.585 867.388 486.775L874.944 484.402C881.248 482.42 887.028 479.043 891.856 474.521C896.684 469.999 900.436 464.447 902.835 458.275C905.234 452.104 906.218 445.471 905.716 438.867C905.213 432.263 903.236 425.857 899.931 420.122L895.977 413.241C867.903 364.504 807.285 340.827 753.694 357.638L746.139 360.01ZM952.009 546.194C901.372 503.202 824.645 515.401 788.309 570.68L785.664 574.732C779.417 584.426 779.049 598.526 790.014 607.823C840.652 650.814 917.364 638.615 953.714 583.336L956.36 579.284C962.621 569.59 962.974 555.49 952.009 546.194ZM1084.44 647.057C1030.1 599.248 948.378 608.471 910.853 668.273L908.148 672.604C901.681 683.124 902.401 697.283 913.028 706.638C967.369 754.462 1049.09 745.239 1086.62 685.422L1089.32 681.091C1095.79 670.571 1095.07 656.413 1084.44 647.057ZM1118.85 387.178C1128.47 376.614 1142.7 376.055 1153.32 381.55L1158.26 384.128C1225.49 419.591 1241.09 501.876 1189.6 558.51C1179.99 569.074 1165.74 569.634 1155.13 564.139L1150.18 561.546C1082.95 526.097 1067.35 443.798 1118.85 387.178ZM1279.35 502.731C1211.47 540.624 1199.98 624.987 1253.36 680.943L1257.3 685.054C1265.72 693.732 1279.53 697.769 1292.09 690.741C1359.97 652.832 1371.47 568.485 1318.08 512.528L1314.14 508.432C1305.73 499.74 1291.93 495.703 1279.36 502.731M948.643 513.972C945.379 511.906 942.553 509.215 940.326 506.054C938.099 502.893 936.516 499.323 935.665 495.549C934.815 491.774 934.715 487.868 935.37 484.055C936.026 480.242 937.424 476.595 939.486 473.323C941.547 470.051 944.231 467.219 947.385 464.987C950.539 462.755 954.1 461.167 957.866 460.315C961.632 459.463 965.528 459.362 969.333 460.019C973.137 460.676 976.775 462.078 980.039 464.144C1062.19 516.249 1136.01 580.488 1199.02 654.689C1257.87 723.832 1297.87 790.116 1323.2 839.237C1333.22 858.585 1342.43 878.344 1350.8 898.464C1353.95 906.142 1356.88 913.905 1359.6 921.743C1364.98 937.095 1356.52 953.832 1341.1 958.988C1325.71 964.13 1309.23 955.718 1303.82 940.38C1301.55 933.868 1299.1 927.4 1296.47 920.977C1291.14 908.041 1282.8 889.241 1270.97 866.287C1238.75 804.253 1199.61 746.087 1154.29 692.907C1095.12 623.21 1025.78 562.87 948.628 513.928" fill="white"/>
</svg>
