<svg width="1700" height="1700" viewBox="0 0 1700 1700" fill="none" xmlns="http://www.w3.org/2000/svg">
<path fill-rule="evenodd" clip-rule="evenodd" d="M850 1700C1319.44 1700 1700 1319.44 1700 850C1700 806.666 1696.76 764.09 1690.5 722.5C1636.22 774.009 1608.53 807.867 1553.77 874.814C1521.53 914.236 1479.9 965.131 1417.94 1037.86C1251.62 1233.22 1138.54 1374.46 1078.7 1461.58C1066.38 1480.06 1056.7 1493.26 1049.66 1501.18C1042.62 1509.1 1031.18 1518.34 1015.34 1528.9C985.415 1548.26 933.055 1557.94 858.255 1557.94C815.135 1557.94 793.575 1547.38 793.575 1526.26L797.535 1511.74C802.815 1495.02 812.495 1466.86 826.575 1427.26C840.655 1387.66 852.535 1354.22 862.215 1326.94C871.895 1299.66 882.455 1269.74 893.895 1237.18C915.895 1171.18 926.895 1130.7 926.895 1115.74C926.895 1100.78 920.295 1093.3 907.095 1093.3C893.015 1093.3 877.175 1103.86 859.575 1124.98C790.055 1207.7 705.575 1319.9 606.135 1461.58C589.415 1485.34 576.215 1502.5 566.535 1513.06C556.855 1522.74 536.615 1532.42 505.815 1542.1C476.94 1552 436.473 1560.21 393.098 1561.2C390.235 1561.27 387.359 1561.3 384.473 1561.3C518.195 1649 678.141 1700 850 1700ZM382.573 1560.05L368.5 1551L354.199 1540.5L336 1527.04L318.5 1513.37C324.4 1496.34 330.909 1477.82 337.936 1457.83L337.937 1457.82C367.592 1373.43 406.473 1262.79 447.735 1127.62C499.655 960.42 534.855 837.66 553.335 759.34C561.255 714.46 565.215 681.02 565.215 659.02L563.895 629.98C563.895 606.22 604.815 594.34 686.655 594.34C737.695 594.34 763.215 607.1 763.215 632.62C763.215 637.02 762.335 640.1 760.575 641.86C754.415 676.18 719.655 785.74 656.295 970.54C592.935 1155.34 561.255 1257.42 561.255 1276.78C561.255 1295.26 570.055 1304.5 587.655 1304.5C600.855 1304.5 610.975 1300.98 618.015 1293.94L664.215 1247.74C682.695 1229.26 733.295 1162.82 816.015 1048.42C898.735 933.14 965.175 833.7 1015.34 750.1C1032.06 716.66 1087.5 699.94 1181.66 699.94C1205.42 699.94 1217.3 707.42 1217.3 722.38L1208.06 747.46C1181.66 801.14 1146.02 895.74 1101.14 1031.26C1056.26 1166.78 1033.82 1246.42 1033.82 1270.18C1033.82 1293.06 1042.62 1304.5 1060.22 1304.5C1073.42 1304.5 1083.54 1300.98 1090.58 1293.94L1127.54 1256.98C1160.1 1224.42 1231.38 1131.58 1341.38 978.46C1452.26 824.46 1527.06 709.62 1565.78 633.94C1575.46 614.58 1586.46 601.82 1598.78 595.66C1619.96 585.492 1620.03 585.485 1652.93 582.374C1653.03 582.365 1653.13 582.356 1653.23 582.346C1654.41 582.235 1655.62 582.12 1656.89 582L1662.52 599.613C1555.64 252.379 1232.29 0 850 0C380.558 0 0 380.558 0 850C0 1118.31 124.32 1357.59 318.5 1513.37C330.152 1522.72 342.056 1531.77 354.199 1540.5C363.518 1547.2 372.977 1553.72 382.573 1560.05ZM1662.52 599.625L1662.53 599.631C1663.23 601.933 1663.9 604.139 1664.53 606.252" fill="#2A9134"/>
<path d="M563.895 629.98L565.215 659.02C565.215 681.02 561.255 714.46 553.335 759.34C534.855 837.66 499.655 960.42 447.735 1127.62C406.473 1262.79 367.592 1373.43 337.937 1457.82L337.936 1457.83C330.909 1477.82 324.4 1496.34 318.5 1513.37L336 1527.04L354.199 1540.5L368.5 1551L382.573 1560.05C383.205 1560.47 383.839 1560.89 384.473 1561.3C387.359 1561.3 390.235 1561.27 393.098 1561.2C436.473 1560.21 476.94 1552 505.815 1542.1C536.615 1532.42 556.855 1522.74 566.535 1513.06C576.215 1502.5 589.415 1485.34 606.135 1461.58C705.575 1319.9 790.055 1207.7 859.575 1124.98C877.175 1103.86 893.015 1093.3 907.095 1093.3C920.295 1093.3 926.895 1100.78 926.895 1115.74C926.895 1130.7 915.895 1171.18 893.895 1237.18C882.455 1269.74 871.895 1299.66 862.215 1326.94C852.535 1354.22 840.655 1387.66 826.575 1427.26C812.495 1466.86 802.815 1495.02 797.535 1511.74L793.575 1526.26C793.575 1547.38 815.135 1557.94 858.255 1557.94C933.055 1557.94 985.415 1548.26 1015.34 1528.9C1031.18 1518.34 1042.62 1509.1 1049.66 1501.18C1056.7 1493.26 1066.38 1480.06 1078.7 1461.58C1138.54 1374.46 1251.62 1233.22 1417.94 1037.86C1479.9 965.131 1521.53 914.236 1553.77 874.814C1608.53 807.867 1636.22 774.009 1690.5 722.5C1686.71 697.287 1681.81 672.436 1675.85 648C1672.43 633.944 1668.65 620.025 1664.53 606.252C1663.9 604.139 1663.23 601.933 1662.53 599.631L1662.52 599.625L1662.52 599.62L1662.52 599.613L1656.89 582C1655.62 582.12 1654.41 582.235 1653.23 582.346L1652.93 582.374C1620.03 585.485 1619.96 585.492 1598.78 595.66C1586.46 601.82 1575.46 614.58 1565.78 633.94C1527.06 709.62 1452.26 824.46 1341.38 978.46C1231.38 1131.58 1160.1 1224.42 1127.54 1256.98L1090.58 1293.94C1083.54 1300.98 1073.42 1304.5 1060.22 1304.5C1042.62 1304.5 1033.82 1293.06 1033.82 1270.18C1033.82 1246.42 1056.26 1166.78 1101.14 1031.26C1146.02 895.74 1181.66 801.14 1208.06 747.46L1217.3 722.38C1217.3 707.42 1205.42 699.94 1181.66 699.94C1087.5 699.94 1032.06 716.66 1015.34 750.1C965.175 833.7 898.735 933.14 816.015 1048.42C733.295 1162.82 682.695 1229.26 664.215 1247.74L618.015 1293.94C610.975 1300.98 600.855 1304.5 587.655 1304.5C570.055 1304.5 561.255 1295.26 561.255 1276.78C561.255 1257.42 592.935 1155.34 656.295 970.54C719.655 785.74 754.415 676.18 760.575 641.86C762.335 640.1 763.215 637.02 763.215 632.62C763.215 607.1 737.695 594.34 686.655 594.34C604.815 594.34 563.895 606.22 563.895 629.98Z" fill="white"/>
<path fill-rule="evenodd" clip-rule="evenodd" d="M1133.78 461.003C1139.24 389.404 1081.45 335.578 1010.48 348.369C996.868 350.828 989.094 362.257 988.105 373.768L987.689 378.992C982.231 450.577 1040.02 504.418 1110.99 491.626C1124.62 489.166 1132.39 477.736 1133.36 466.213L1133.78 461.003ZM801.239 448.514C805.443 443.406 810.74 439.31 816.737 436.531L823.922 433.202C874.889 409.602 938.059 425.24 972.201 469.937L977.012 476.249C981.031 481.508 983.819 487.605 985.172 494.089C986.524 500.572 986.405 507.277 984.825 513.707C983.244 520.136 980.242 526.127 976.039 531.236C971.837 536.344 966.542 540.44 960.547 543.221L953.362 546.55C902.394 570.15 839.224 554.512 805.082 509.815L800.257 503.506C796.238 498.245 793.45 492.147 792.099 485.662C790.747 479.178 790.867 472.473 792.449 466.043C794.031 459.612 797.035 453.622 801.239 448.514ZM885.798 639.978C914.679 580.464 989.185 558.445 1044.96 594.527C1057.03 602.327 1058.51 616.354 1053.55 626.777L1051.45 631.137C1022.55 690.653 948.064 712.67 892.292 676.588C880.217 668.788 878.758 654.759 883.698 644.338L885.798 639.978ZM1223.29 405.231C1212.04 401.156 1198 403.552 1189.84 415.27C1146.09 478.075 1172.19 557.666 1243.45 584.122L1248.69 586.053C1259.93 590.13 1273.98 587.732 1282.14 576.014C1325.88 513.197 1299.77 433.619 1228.52 407.149L1223.29 405.231ZM1361.21 689.173C1301.03 640.59 1301.52 555.45 1363.93 509.096L1363.94 509.094C1375.49 500.5 1389.7 502.718 1399.16 510.25L1403.6 513.802C1463.77 562.385 1463.28 647.511 1400.88 693.879C1389.32 702.473 1375.12 700.255 1365.64 692.74L1361.21 689.173ZM1028.18 556.235C1030.8 559.082 1033.95 561.384 1037.45 563.011L1037.43 562.969C1120.27 601.523 1196.82 652.389 1264.51 713.848C1316.33 760.721 1362.66 813.336 1402.64 870.683C1417.34 891.914 1428.03 909.478 1435 921.615C1438.43 927.645 1441.7 933.742 1444.79 939.905C1452.14 954.414 1469.57 960.625 1484.16 953.536C1498.79 946.429 1505.02 928.738 1497.7 914.21C1493.98 906.79 1490.07 899.473 1485.96 892.266C1475.05 873.398 1463.36 854.995 1450.92 837.106C1419.46 791.673 1371.23 731.118 1303.92 670.166C1231.85 604.738 1150.33 550.586 1062.14 509.542C1058.64 507.915 1054.85 506.995 1050.99 506.836C1047.13 506.676 1043.28 507.28 1039.66 508.612C1036.03 509.944 1032.71 511.979 1029.87 514.6C1027.03 517.221 1024.74 520.377 1023.11 523.888C1021.49 527.399 1020.58 531.196 1020.42 535.062C1020.26 538.928 1020.87 542.788 1022.2 546.421C1023.53 550.054 1025.56 553.389 1028.18 556.235Z" fill="white"/>
</svg>
