<svg width="1700" height="1700" viewBox="0 0 1700 1700" fill="none" xmlns="http://www.w3.org/2000/svg">
<circle cx="850" cy="850" r="850" fill="white"/>
<path d="M520.058 675.2L518.858 648.8C518.858 627.2 556.058 616.4 630.458 616.4C676.858 616.4 700.058 628 700.058 651.2C700.058 655.2 699.258 658 697.658 659.6C692.058 690.8 660.458 790.4 602.858 958.4C545.258 1126.4 516.458 1219.2 516.458 1236.8C516.458 1253.6 524.458 1262 540.458 1262C552.458 1262 561.658 1258.8 568.058 1252.4C579.258 1241.2 593.258 1227.2 610.058 1210.4C626.858 1193.6 672.858 1133.2 748.058 1029.2C823.258 924.4 883.658 834 929.258 758C944.458 727.6 994.858 712.4 1080.46 712.4C1102.06 712.4 1112.86 719.2 1112.86 732.8L1104.46 755.6C1080.46 804.4 1048.06 890.4 1007.26 1013.6C966.458 1136.8 946.058 1209.2 946.058 1230.8C946.058 1251.6 954.058 1262 970.058 1262C982.058 1262 991.258 1258.8 997.658 1252.4C1008.86 1241.2 1020.06 1230 1031.26 1218.8C1060.86 1189.2 1125.66 1104.8 1225.66 965.6C1326.46 825.6 1394.46 721.2 1429.66 652.4C1438.46 634.8 1448.46 623.2 1459.66 617.6C1479.66 608 1514.86 602.4 1565.26 600.8H1589.26C1630.86 600.8 1651.66 607.6 1651.66 621.2C1651.66 626.8 1648.06 633.2 1640.86 640.4C1562.46 714.8 1447.26 841.2 1295.26 1019.6C1144.06 1197.2 1041.26 1325.6 986.858 1404.8C975.658 1421.6 966.858 1433.6 960.458 1440.8C954.058 1448 943.658 1456.4 929.258 1466C902.058 1483.6 854.458 1492.4 786.458 1492.4C747.258 1492.4 727.658 1482.8 727.658 1463.6L731.258 1450.4C736.058 1435.2 744.858 1409.6 757.658 1373.6C770.458 1337.6 781.258 1307.2 790.058 1282.4C798.858 1257.6 808.458 1230.4 818.858 1200.8C838.858 1140.8 848.858 1104 848.858 1090.4C848.858 1076.8 842.858 1070 830.858 1070C818.058 1070 803.658 1079.6 787.658 1098.8C724.458 1174 647.658 1276 557.258 1404.8C542.058 1426.4 530.058 1442 521.258 1451.6C512.458 1460.4 494.058 1469.2 466.058 1478C438.058 1487.6 402.858 1492.4 360.458 1492.4C318.858 1492.4 298.058 1482.8 298.058 1463.6L301.658 1450.4C329.658 1369.6 366.858 1253.2 413.258 1101.2C460.458 949.2 492.458 837.6 509.258 766.4C516.458 725.6 520.058 695.2 520.058 675.2Z" fill="#2A9134"/>
<path fill-rule="evenodd" clip-rule="evenodd" d="M1005.78 413.003C1011.24 341.404 953.446 287.578 882.481 300.369C868.868 302.828 861.094 314.257 860.105 325.768L859.689 330.992C854.231 402.577 912.023 456.418 982.988 443.626C996.616 441.166 1004.39 429.736 1005.36 418.213L1005.78 413.003ZM673.239 400.514C677.443 395.406 682.74 391.31 688.737 388.531L695.922 385.202C746.889 361.602 810.059 377.24 844.201 421.937L849.012 428.249C853.031 433.508 855.819 439.605 857.172 446.089C858.524 452.572 858.405 459.277 856.825 465.707C855.244 472.136 852.242 478.127 848.039 483.236C843.837 488.344 838.542 492.44 832.547 495.221L825.362 498.55C774.394 522.15 711.224 506.512 677.082 461.815L672.257 455.506C668.238 450.245 665.45 444.147 664.099 437.662C662.747 431.178 662.867 424.473 664.449 418.043C666.031 411.612 669.035 405.622 673.239 400.514ZM757.798 591.978C786.679 532.464 861.185 510.445 916.956 546.527C929.032 554.327 930.505 568.354 925.55 578.777L923.45 583.137C894.555 642.653 820.064 664.67 764.292 628.588C752.217 620.788 750.758 606.759 755.698 596.338L757.798 591.978ZM1095.29 357.231C1084.04 353.156 1070 355.552 1061.84 367.27C1018.09 430.075 1044.19 509.666 1115.45 536.122L1120.69 538.053C1131.93 542.13 1145.98 539.732 1154.14 528.014C1197.88 465.197 1171.77 385.619 1100.52 359.149L1095.29 357.231ZM1233.21 641.173C1173.03 592.59 1173.52 507.45 1235.93 461.096L1235.94 461.094C1247.49 452.5 1261.7 454.718 1271.16 462.25L1275.6 465.802C1335.77 514.385 1335.28 599.511 1272.88 645.879C1261.32 654.473 1247.12 652.255 1237.64 644.74L1233.21 641.173ZM900.18 508.235C902.797 511.082 905.947 513.384 909.451 515.011L909.431 514.969C992.265 553.523 1068.82 604.389 1136.51 665.848C1188.33 712.721 1234.66 765.336 1274.64 822.683C1289.34 843.914 1300.03 861.478 1307 873.615C1310.43 879.645 1313.7 885.742 1316.79 891.905C1324.14 906.414 1341.57 912.625 1356.16 905.536C1370.79 898.429 1377.02 880.738 1369.7 866.21C1365.98 858.79 1362.07 851.473 1357.96 844.266C1347.05 825.398 1335.36 806.995 1322.92 789.106C1291.46 743.673 1243.23 683.118 1175.92 622.166C1103.85 556.738 1022.33 502.586 934.14 461.542C930.636 459.915 926.847 458.995 922.99 458.836C919.132 458.676 915.282 459.28 911.658 460.612C908.034 461.944 904.708 463.979 901.869 466.6C899.031 469.221 896.735 472.377 895.114 475.888C893.493 479.399 892.578 483.196 892.421 487.062C892.264 490.928 892.869 494.788 894.2 498.421C895.532 502.054 897.564 505.389 900.18 508.235Z" fill="#2A9134"/>
</svg>
