<svg width="3330" height="1786" viewBox="0 0 3330 1786" fill="none" xmlns="http://www.w3.org/2000/svg">
<path d="M244.2 81.84L242.88 52.8C242.88 29.04 283.8 17.16 365.64 17.16C416.68 17.16 442.2 29.92 442.2 55.44C442.2 59.84 441.32 62.92 439.56 64.68C433.4 99 398.64 208.56 335.28 393.36C271.92 578.16 240.24 680.24 240.24 699.6C240.24 718.08 249.04 727.32 266.64 727.32C279.84 727.32 289.96 723.8 297 716.76C309.32 704.44 324.72 689.04 343.2 670.56C361.68 652.08 412.28 585.64 495 471.24C577.72 355.96 644.16 256.52 694.32 172.92C711.04 139.48 766.48 122.76 860.64 122.76C884.4 122.76 896.28 130.24 896.28 145.2L887.04 170.28C860.64 223.96 825 318.56 780.12 454.08C735.24 589.6 712.8 669.24 712.8 693C712.8 715.88 721.6 727.32 739.2 727.32C752.4 727.32 762.52 723.8 769.56 716.76C781.88 704.44 794.2 692.12 806.52 679.8C839.08 647.24 910.36 554.4 1020.36 401.28C1131.24 247.28 1206.04 132.44 1244.76 56.76C1254.44 37.4 1265.44 24.64 1277.76 18.4801C1299.76 7.92003 1338.48 1.76003 1393.92 5.38826e-05H1420.32C1466.08 5.38826e-05 1488.96 7.48004 1488.96 22.44C1488.96 28.6 1485 35.64 1477.08 43.56C1390.84 125.4 1264.12 264.44 1096.92 460.68C930.6 656.04 817.52 797.28 757.68 884.4C745.36 902.88 735.68 916.08 728.64 924C721.6 931.92 710.16 941.16 694.32 951.72C664.4 971.08 612.04 980.76 537.24 980.76C494.12 980.76 472.56 970.2 472.56 949.08L476.52 934.56C481.8 917.84 491.48 889.68 505.56 850.08C519.64 810.48 531.52 777.04 541.2 749.76C550.88 722.48 561.44 692.56 572.88 660C594.88 594 605.88 553.52 605.88 538.56C605.88 523.6 599.28 516.12 586.08 516.12C572 516.12 556.16 526.68 538.56 547.8C469.04 630.52 384.56 742.72 285.12 884.4C268.4 908.16 255.2 925.32 245.52 935.88C235.84 945.56 215.6 955.24 184.8 964.92C154 975.48 115.28 980.76 68.6401 980.76C22.8801 980.76 0.000119627 970.2 0.000119627 949.08L3.96012 934.56C34.7601 845.68 75.6801 717.64 126.72 550.44C178.64 383.24 213.84 260.48 232.32 182.16C240.24 137.28 244.2 103.84 244.2 81.84ZM1233.87 912.12L1236.51 884.4C1236.51 877.36 1233.87 873.84 1228.59 873.84C1220.67 873.84 1204.39 885.28 1179.75 908.16C1155.99 931.04 1125.63 953.92 1088.67 976.8C1052.59 1000.56 1016.07 1012.44 979.11 1012.44C943.03 1012.44 924.99 985.6 924.99 931.92C924.99 865.04 954.03 788.04 1012.11 700.92C1042.03 656.92 1076.35 616.44 1115.07 579.48C1154.67 541.64 1202.63 510.84 1258.95 487.08C1315.27 462.44 1374.23 450.12 1435.83 450.12C1468.39 450.12 1496.11 458.92 1518.99 476.52C1541.87 493.24 1553.31 514.36 1553.31 539.88C1553.31 564.52 1545.83 576.84 1530.87 576.84C1522.95 576.84 1512.39 572 1499.19 562.32C1474.55 545.6 1435.83 537.24 1383.03 537.24C1313.51 537.24 1247.51 568.92 1185.03 632.28C1123.43 694.76 1092.63 756.8 1092.63 818.4C1092.63 826.32 1094.83 833.8 1099.23 840.84C1104.51 847.88 1111.55 851.4 1120.35 851.4C1146.75 851.4 1180.63 833.36 1221.99 797.28C1263.35 760.32 1303.83 707.52 1343.43 638.88C1346.07 630.96 1355.75 623.48 1372.47 616.44C1389.19 609.4 1408.99 605.88 1431.87 605.88C1464.43 608.52 1480.71 615.56 1480.71 627C1480.71 627.88 1477.19 633.6 1470.15 644.16C1463.99 653.84 1452.55 671.88 1435.83 698.28C1419.11 724.68 1395.35 768.24 1364.55 828.96C1334.63 888.8 1317.03 936.32 1311.75 971.52C1310.87 982.08 1306.47 987.36 1298.55 987.36C1255.43 987.36 1233.87 962.28 1233.87 912.12ZM1505.51 1025.64C1493.19 1025.64 1479.55 1017.72 1464.59 1001.88C1449.63 986.92 1442.15 968.44 1442.15 946.44C1442.15 934.12 1470.75 872.08 1527.95 760.32C1586.03 647.68 1615.95 571.56 1617.71 531.96C1617.71 519.64 1625.63 508.2 1641.47 497.64C1669.63 480.92 1711.43 472.56 1766.87 472.56C1777.43 472.56 1788.43 474.76 1799.87 479.16C1812.19 482.68 1818.35 487.96 1818.35 495C1818.35 498.52 1817.03 501.6 1814.39 504.24C1780.95 546.48 1732.11 622.6 1667.87 732.6C1603.63 842.6 1555.23 931.92 1522.67 1000.56C1518.27 1017.28 1512.55 1025.64 1505.51 1025.64ZM1794.59 398.64C1755.87 398.64 1735.63 383.24 1733.87 352.44V351.12C1733.87 324.72 1746.63 303.16 1772.15 286.44C1798.55 269.72 1824.51 261.36 1850.03 261.36C1888.75 261.36 1908.99 276.76 1910.75 307.56C1910.75 333.96 1897.99 355.96 1872.47 373.56C1846.95 390.28 1820.99 398.64 1794.59 398.64ZM1617.75 1020.36C1617.75 1013.32 1622.59 1008.92 1632.27 1007.16C1693.87 1007.16 1759.43 987.36 1828.95 947.76C1899.35 908.16 1934.55 866.8 1934.55 823.68C1934.55 792 1913.43 761.64 1871.19 732.6C1828.95 702.68 1807.83 671.44 1807.83 638.88C1807.83 590.48 1838.63 548.68 1900.23 513.48C1961.83 477.4 2031.79 459.36 2110.11 459.36C2124.19 459.36 2133.43 459.8 2137.83 460.68C2142.23 460.68 2146.19 458.04 2149.71 452.76C2154.11 446.6 2158.95 440 2164.23 432.96C2169.51 425.92 2179.19 419.76 2193.27 414.48C2207.35 408.32 2224.07 405.24 2243.43 405.24C2288.31 405.24 2310.75 411.84 2310.75 425.04C2310.75 427.68 2310.31 429.88 2309.43 431.64C2295.35 443.96 2270.27 474.32 2234.19 522.72C2198.11 571.12 2171.71 616.44 2154.99 658.68C2151.47 666.6 2143.55 670.56 2131.23 670.56C2119.79 670.56 2108.35 663.96 2096.91 650.76C2085.47 636.68 2079.75 623.48 2079.75 611.16C2079.75 597.96 2081.95 584.32 2086.35 570.24C2090.75 555.28 2092.95 546.48 2092.95 543.84C2092.95 532.4 2085.91 526.68 2071.83 526.68C2044.55 526.68 2015.95 535.04 1986.03 551.76C1956.99 567.6 1942.47 590.92 1942.47 621.72C1942.47 651.64 1964.47 682 2008.47 712.8C2025.19 725.12 2040.15 740.96 2053.35 760.32C2067.43 779.68 2074.47 799.92 2074.47 821.04C2074.47 880.88 2035.31 935 1956.99 983.4C1878.67 1032.68 1793.75 1057.32 1702.23 1057.32C1650.31 1057.32 1622.15 1045 1617.75 1020.36ZM1866.84 1785.96C1829.88 1785.96 1811.4 1755.16 1811.4 1693.56C1811.4 1631.96 1829.44 1563.32 1865.52 1487.64C1901.6 1412.84 1945.16 1343.76 1996.2 1280.4C2046.36 1217.92 2100.04 1164.68 2157.24 1120.68C2214.44 1076.68 2262.4 1054.68 2301.12 1054.68C2314.32 1054.68 2320.92 1057.76 2320.92 1063.92C2320.92 1070.08 2315.64 1075.8 2305.08 1081.08C2271.64 1098.68 2228.96 1136.08 2177.04 1193.28C2126 1251.36 2079.8 1317.36 2038.44 1391.28C1996.2 1466.08 1975.08 1529 1975.08 1580.04C1975.08 1602.04 1983 1613.04 1998.84 1613.04C2029.64 1613.04 2076.28 1569.92 2138.76 1483.68C2239.96 1345.52 2343.36 1169.52 2448.96 955.68C2480.64 892.32 2496.48 854.48 2496.48 842.16C2496.48 829.84 2492.96 823.68 2485.92 823.68C2477.12 823.68 2468.32 828.08 2459.52 836.88C2360.96 921.36 2284.4 963.6 2229.84 963.6C2190.24 963.6 2170.44 942.48 2170.44 900.24C2170.44 857.12 2193.76 791.12 2240.4 702.24C2287.92 612.48 2335.88 543.4 2384.28 495C2394.84 484.44 2409.36 476.08 2427.84 469.92C2446.32 462.88 2465.24 459.36 2484.6 459.36C2504.84 459.36 2514.96 463.76 2514.96 472.56C2514.96 476.08 2500.88 496.32 2472.72 533.28C2387.36 646.8 2344.68 727.76 2344.68 776.16C2344.68 797.28 2353.92 807.84 2372.4 807.84C2404.96 807.84 2455.12 776.16 2522.88 712.8C2591.52 649.44 2651.36 575.08 2702.4 489.72C2718.24 458.04 2753.44 442.2 2808 442.2C2834.4 442.2 2847.6 447.48 2847.6 458.04C2847.6 460.68 2846.28 464.2 2843.64 468.6C2758.28 609.4 2680.4 745.36 2610 876.48C2539.6 1006.72 2482.84 1107.04 2439.72 1177.44C2397.48 1248.72 2349.96 1322.64 2297.16 1399.2C2245.24 1475.76 2195.08 1541.32 2146.68 1595.88C2099.16 1651.32 2050.76 1696.64 2001.48 1731.84C1951.32 1767.92 1906.44 1785.96 1866.84 1785.96ZM3010.2 912.12L3012.84 884.4C3012.84 877.36 3010.2 873.84 3004.92 873.84C2997 873.84 2980.72 885.28 2956.08 908.16C2932.32 931.04 2901.96 953.92 2865 976.8C2828.92 1000.56 2792.4 1012.44 2755.44 1012.44C2719.36 1012.44 2701.32 985.6 2701.32 931.92C2701.32 865.04 2730.36 788.04 2788.44 700.92C2818.36 656.92 2852.68 616.44 2891.4 579.48C2931 541.64 2978.96 510.84 3035.28 487.08C3091.6 462.44 3150.56 450.12 3212.16 450.12C3244.72 450.12 3272.44 458.92 3295.32 476.52C3318.2 493.24 3329.64 514.36 3329.64 539.88C3329.64 564.52 3322.16 576.84 3307.2 576.84C3299.28 576.84 3288.72 572 3275.52 562.32C3250.88 545.6 3212.16 537.24 3159.36 537.24C3089.84 537.24 3023.84 568.92 2961.36 632.28C2899.76 694.76 2868.96 756.8 2868.96 818.4C2868.96 826.32 2871.16 833.8 2875.56 840.84C2880.84 847.88 2887.88 851.4 2896.68 851.4C2923.08 851.4 2956.96 833.36 2998.32 797.28C3039.68 760.32 3080.16 707.52 3119.76 638.88C3122.4 630.96 3132.08 623.48 3148.8 616.44C3165.52 609.4 3185.32 605.88 3208.2 605.88C3240.76 608.52 3257.04 615.56 3257.04 627C3257.04 627.88 3253.52 633.6 3246.48 644.16C3240.32 653.84 3228.88 671.88 3212.16 698.28C3195.44 724.68 3171.68 768.24 3140.88 828.96C3110.96 888.8 3093.36 936.32 3088.08 971.52C3087.2 982.08 3082.8 987.36 3074.88 987.36C3031.76 987.36 3010.2 962.28 3010.2 912.12Z" fill="white"/>
</svg>
