<svg width="40" height="40" viewBox="0 0 40 40" fill="none" xmlns="http://www.w3.org/2000/svg">
<path d="M9.99984 31.6663H14.9998V23.333C14.9998 22.8608 15.1598 22.4652 15.4798 22.1463C15.7998 21.8275 16.1954 21.6675 16.6665 21.6663H23.3332C23.8054 21.6663 24.2015 21.8263 24.5215 22.1463C24.8415 22.4663 25.0009 22.8619 24.9998 23.333V31.6663H29.9998V16.6663L19.9998 9.16634L9.99984 16.6663V31.6663ZM6.6665 31.6663V16.6663C6.6665 16.1386 6.78484 15.6386 7.0215 15.1663C7.25817 14.6941 7.58428 14.3052 7.99984 13.9997L17.9998 6.49967C18.5832 6.05523 19.2498 5.83301 19.9998 5.83301C20.7498 5.83301 21.4165 6.05523 21.9998 6.49967L31.9998 13.9997C32.4165 14.3052 32.7432 14.6941 32.9798 15.1663C33.2165 15.6386 33.3343 16.1386 33.3332 16.6663V31.6663C33.3332 32.583 33.0065 33.368 32.3532 34.0213C31.6998 34.6747 30.9154 35.0008 29.9998 34.9997H23.3332C22.8609 34.9997 22.4654 34.8397 22.1465 34.5197C21.8276 34.1997 21.6676 33.8041 21.6665 33.333V24.9997H18.3332V33.333C18.3332 33.8052 18.1732 34.2013 17.8532 34.5213C17.5332 34.8413 17.1376 35.0008 16.6665 34.9997H9.99984C9.08317 34.9997 8.29873 34.6736 7.6465 34.0213C6.99428 33.3691 6.66762 32.5841 6.6665 31.6663Z" fill="#C9C9C9"/>
</svg>
