<svg width="52" height="52" viewBox="0 0 52 52" fill="none" xmlns="http://www.w3.org/2000/svg">
<path d="M39.4062 47.3281H32.5V42.8594H39.4062C40.3221 42.8594 41.2004 42.4956 41.848 41.848C42.4956 41.2004 42.8594 40.3221 42.8594 39.4062V32.5H47.3281V39.4062C47.3257 41.5065 46.4903 43.5201 45.0052 45.0052C43.5201 46.4903 41.5065 47.3257 39.4062 47.3281ZM47.3281 19.5H42.8594V12.5938C42.8594 11.6779 42.4956 10.7996 41.848 10.152C41.2004 9.50444 40.3221 9.14062 39.4062 9.14062H32.5V4.67188H39.4062C41.5065 4.67429 43.5201 5.50969 45.0052 6.99481C46.4903 8.47993 47.3257 10.4935 47.3281 12.5938V19.5ZM19.5 47.3281H12.5938C10.4935 47.3257 8.47993 46.4903 6.99481 45.0052C5.50969 43.5201 4.67429 41.5065 4.67188 39.4062V32.5H9.14062V39.4062C9.14062 40.3221 9.50444 41.2004 10.152 41.848C10.7996 42.4956 11.6779 42.8594 12.5938 42.8594H19.5V47.3281ZM9.14062 19.5H4.67188V12.5938C4.67429 10.4935 5.50969 8.47993 6.99481 6.99481C8.47993 5.50969 10.4935 4.67429 12.5938 4.67188H19.5V9.14062H12.5938C11.6779 9.14062 10.7996 9.50444 10.152 10.152C9.50444 10.7996 9.14062 11.6779 9.14062 12.5938V19.5Z" fill="white"/>
<path fill-rule="evenodd" clip-rule="evenodd" d="M29.0002 15.0049C26.5502 14.8859 24.8377 16.9509 25.3367 19.3364L25.3737 19.5099C25.4572 19.8934 25.7697 20.2439 26.2402 20.2669C28.6902 20.3859 30.4027 18.3204 29.9037 15.9354L29.8667 15.7614C29.7827 15.3784 29.4702 15.0279 29.0002 15.0049ZM35.9232 17.1214C36.1377 17.1886 36.3344 17.3032 36.4986 17.4566C36.6629 17.6101 36.7906 17.7985 36.8723 18.0079C36.9539 18.2174 36.9874 18.4425 36.9704 18.6666C36.9533 18.8908 36.8861 19.1082 36.7737 19.3029L36.6387 19.5364C35.6837 21.1904 33.6217 21.9939 31.7987 21.4234L31.5417 21.3429C31.3272 21.2756 31.1306 21.161 30.9664 21.0076C30.8022 20.8541 30.6745 20.6657 30.5929 20.4562C30.5113 20.2468 30.4778 20.0217 30.4949 19.7976C30.512 19.5735 30.5793 19.356 30.6917 19.1614L30.8262 18.9279C31.7812 17.2739 33.8432 16.4704 35.6662 17.0409L35.9232 17.1214ZM28.9202 23.4399C30.6427 21.9809 33.2527 22.3949 34.4887 24.2709L34.5787 24.4084C34.7912 24.7374 34.8037 25.2159 34.4307 25.5314C32.7082 26.9904 30.0987 26.5764 28.8622 24.7004L28.7722 24.5629C28.5592 24.2339 28.5472 23.7554 28.9202 23.4399ZM24.4152 26.8629C26.2637 25.2404 29.0437 25.5534 30.3202 27.5829L30.4122 27.7299C30.6322 28.0869 30.6077 28.5674 30.2462 28.8849C28.3977 30.5079 25.6177 30.1949 24.3412 28.1649L24.2492 28.0179C24.0292 27.6609 24.0537 27.1804 24.4152 26.8629ZM23.2447 18.0434C22.9177 17.6849 22.4337 17.6659 22.0722 17.8524L21.9042 17.9399C19.6172 19.1434 19.0867 21.9359 20.8382 23.8579C21.1652 24.2164 21.6497 24.2354 22.0107 24.0489L22.1792 23.9609C24.4662 22.7579 24.9967 19.9649 23.2447 18.0434ZM17.7852 21.9649C20.0942 23.2509 20.4852 26.1139 18.6692 28.0129L18.5352 28.1524C18.2487 28.4469 17.7792 28.5839 17.3517 28.3454C15.0427 27.0589 14.6517 24.1964 16.4677 22.2974L16.6017 22.1584C16.8877 21.8634 17.3572 21.7264 17.7847 21.9649M26.9277 31.6274C25.5002 29.4219 22.6242 29.1409 20.8392 31.0899C20.5087 31.4509 20.5332 31.9394 20.7537 32.2859C20.7854 32.3359 20.8202 32.3901 20.8582 32.4484C22.2862 34.6544 25.1617 34.9354 26.9472 32.9864C27.2772 32.6254 27.2527 32.1364 27.0322 31.7904C27.0005 31.7404 26.9657 31.6857 26.9277 31.6274ZM29.0347 22.3464C29.1457 22.2763 29.2419 22.185 29.3176 22.0777C29.3933 21.9704 29.4472 21.8493 29.4761 21.7212C29.5051 21.5931 29.5085 21.4605 29.4862 21.3311C29.4639 21.2017 29.4163 21.0779 29.3462 20.9669C29.2761 20.8559 29.1848 20.7597 29.0775 20.684C28.9702 20.6082 28.849 20.5544 28.721 20.5254C28.5929 20.4965 28.4603 20.4931 28.3309 20.5154C28.2015 20.5377 28.0777 20.5853 27.9667 20.6554C25.1724 22.4237 22.6611 24.6038 20.5177 27.1219C18.5157 29.4684 17.1552 31.7179 16.2937 33.3849C15.9528 34.0415 15.6395 34.7121 15.3547 35.3949C15.2477 35.6555 15.1478 35.9189 15.0552 36.1849C14.8722 36.7059 15.1602 37.2739 15.6847 37.4489C16.2082 37.6234 16.7687 37.3379 16.9527 36.8174C17.03 36.5964 17.1134 36.3769 17.2027 36.1589C17.3842 35.7199 17.6677 35.0819 18.0702 34.3029C19.1662 32.1976 20.4977 30.2237 22.0392 28.4189C24.0521 26.0536 26.4107 24.0059 29.0352 22.3449" fill="white"/>
</svg>
