<svg width="40" height="40" viewBox="0 0 40 40" fill="none" xmlns="http://www.w3.org/2000/svg">
<path d="M6.6665 28.3337C6.6665 26.5655 7.36888 24.8699 8.61913 23.6196C9.86937 22.3694 11.5651 21.667 13.3332 21.667H26.6665C28.4346 21.667 30.1303 22.3694 31.3805 23.6196C32.6308 24.8699 33.3332 26.5655 33.3332 28.3337C33.3332 29.2177 32.982 30.0656 32.3569 30.6907C31.7317 31.3158 30.8839 31.667 29.9998 31.667H9.99984C9.11578 31.667 8.26794 31.3158 7.64281 30.6907C7.01769 30.0656 6.6665 29.2177 6.6665 28.3337Z" stroke="#C9C9C9" stroke-width="3" stroke-linejoin="round"/>
<path d="M20 16.667C22.7614 16.667 25 14.4284 25 11.667C25 8.90557 22.7614 6.66699 20 6.66699C17.2386 6.66699 15 8.90557 15 11.667C15 14.4284 17.2386 16.667 20 16.667Z" stroke="#C9C9C9" stroke-width="3"/>
</svg>
