<svg width="40" height="40" viewBox="0 0 40 40" fill="none" xmlns="http://www.w3.org/2000/svg">
<path d="M9.99984 36.6663C9.08317 36.6663 8.29873 36.3402 7.6465 35.688C6.99428 35.0358 6.66762 34.2508 6.6665 33.333V13.333C6.6665 12.4163 6.99317 11.6319 7.6465 10.9797C8.29984 10.3275 9.08428 10.0008 9.99984 9.99967H13.3332C13.3332 8.16634 13.9859 6.5969 15.2915 5.29134C16.5971 3.98579 18.1665 3.33301 19.9998 3.33301C21.8332 3.33301 23.4026 3.98579 24.7082 5.29134C26.0137 6.5969 26.6665 8.16634 26.6665 9.99967H29.9998C30.9165 9.99967 31.7015 10.3263 32.3548 10.9797C33.0082 11.633 33.3343 12.4175 33.3332 13.333V33.333C33.3332 34.2497 33.0071 35.0347 32.3548 35.688C31.7026 36.3413 30.9176 36.6674 29.9998 36.6663H9.99984ZM16.6665 9.99967H23.3332C23.3332 9.08301 23.0071 8.29856 22.3548 7.64634C21.7026 6.99412 20.9176 6.66745 19.9998 6.66634C19.0821 6.66523 18.2976 6.9919 17.6465 7.64634C16.9954 8.30079 16.6687 9.08523 16.6665 9.99967ZM24.9998 18.333C25.4721 18.333 25.8682 18.173 26.1882 17.853C26.5082 17.533 26.6676 17.1375 26.6665 16.6663V13.333H23.3332V16.6663C23.3332 17.1386 23.4932 17.5347 23.8132 17.8547C24.1332 18.1747 24.5287 18.3341 24.9998 18.333ZM14.9998 18.333C15.4721 18.333 15.8682 18.173 16.1882 17.853C16.5082 17.533 16.6676 17.1375 16.6665 16.6663V13.333H13.3332V16.6663C13.3332 17.1386 13.4932 17.5347 13.8132 17.8547C14.1332 18.1747 14.5287 18.3341 14.9998 18.333Z" fill="#2A9134"/>
</svg>
