<svg width="40" height="40" viewBox="0 0 40 40" fill="none" xmlns="http://www.w3.org/2000/svg">
<path d="M34.9967 5.00017V8.3335C34.9967 11.4277 33.7676 14.3952 31.5797 16.5831C29.3917 18.771 26.4243 20.0002 23.3301 20.0002H21.6634V21.6668H29.9967V33.3335C29.9967 34.2176 29.6456 35.0654 29.0204 35.6905C28.3953 36.3156 27.5475 36.6668 26.6634 36.6668H13.3301C12.446 36.6668 11.5982 36.3156 10.9731 35.6905C10.3479 35.0654 9.99674 34.2176 9.99674 33.3335V21.6668H18.3301V16.6668C18.3301 13.5726 19.5592 10.6052 21.7472 8.41725C23.9351 6.22933 26.9025 5.00017 29.9967 5.00017H34.9967ZM9.16341 3.3335C11.1634 3.33188 13.1344 3.81081 14.9107 4.72996C16.6869 5.64911 18.2163 6.98157 19.3701 8.61517C17.6098 10.9299 16.6588 13.7588 16.6634 16.6668V18.3335H15.8301C12.5149 18.3335 9.33545 17.0165 6.99124 14.6723C4.64704 12.3281 3.33008 9.14871 3.33008 5.8335V3.3335H9.16341Z" fill="#2A9134"/>
</svg>
