<svg width="40" height="40" viewBox="0 0 40 40" fill="none" xmlns="http://www.w3.org/2000/svg">
<path d="M6.6665 31.6668V16.6668C6.6665 16.1391 6.78484 15.6391 7.0215 15.1668C7.25817 14.6946 7.58428 14.3057 7.99984 14.0002L17.9998 6.50016C18.5832 6.05572 19.2498 5.8335 19.9998 5.8335C20.7498 5.8335 21.4165 6.05572 21.9998 6.50016L31.9998 14.0002C32.4165 14.3057 32.7432 14.6946 32.9798 15.1668C33.2165 15.6391 33.3343 16.1391 33.3332 16.6668V31.6668C33.3332 32.5835 33.0065 33.3685 32.3532 34.0218C31.6998 34.6752 30.9154 35.0013 29.9998 35.0002H24.9998C24.5276 35.0002 24.1321 34.8402 23.8132 34.5202C23.4943 34.2002 23.3343 33.8046 23.3332 33.3335V25.0002C23.3332 24.5279 23.1732 24.1324 22.8532 23.8135C22.5332 23.4946 22.1376 23.3346 21.6665 23.3335H18.3332C17.8609 23.3335 17.4654 23.4935 17.1465 23.8135C16.8276 24.1335 16.6676 24.5291 16.6665 25.0002V33.3335C16.6665 33.8057 16.5065 34.2018 16.1865 34.5218C15.8665 34.8418 15.4709 35.0013 14.9998 35.0002H9.99984C9.08317 35.0002 8.29873 34.6741 7.6465 34.0218C6.99428 33.3696 6.66762 32.5846 6.6665 31.6668Z" fill="#2A9134"/>
</svg>
